<svg height="512" viewBox="0 0 512 512" width="512" xmlns="http://www.w3.org/2000/svg"><path d="m480 256c0 14.424-17.262 26.966-19.958 40.6-2.779 14.048 8.318 32.222 2.959 45.146-5.453 13.15-26.2 18.13-34.031 29.818-7.885 11.778-4.593 32.845-14.579 42.83s-31.052 6.694-42.83 14.579c-11.688 7.825-16.668 28.577-29.818 34.03-12.924 5.359-31.1-5.738-45.145-2.959-13.633 2.694-26.174 19.956-40.598 19.956s-26.966-17.262-40.6-19.958c-14.048-2.779-32.222 8.318-45.146 2.959-13.15-5.453-18.13-26.2-29.818-34.031-11.778-7.885-32.845-4.593-42.83-14.579s-6.694-31.052-14.579-42.83c-7.827-11.688-28.575-16.668-34.027-29.818-5.359-12.924 5.738-31.1 2.959-45.145-2.697-13.633-19.959-26.174-19.959-40.598s17.262-26.966 19.958-40.6c2.779-14.046-8.318-32.22-2.958-45.144 5.453-13.15 26.2-18.13 34.03-29.818 7.886-11.778 4.594-32.845 14.58-42.83s31.052-6.694 42.83-14.579c11.687-7.829 16.667-28.577 29.817-34.029 12.924-5.359 31.1 5.738 45.145 2.959 13.633-2.697 26.174-19.959 40.598-19.959s26.966 17.262 40.6 19.958c14.046 2.779 32.22-8.318 45.144-2.958 13.15 5.453 18.13 26.2 29.818 34.03 11.778 7.886 32.845 4.594 42.83 14.58s6.694 31.052 14.579 42.83c7.825 11.688 28.577 16.668 34.03 29.818 5.359 12.924-5.738 31.1-2.959 45.145 2.696 13.632 19.958 26.173 19.958 40.597z" fill="#dc6e1e"/><path d="m256 128a127.947 127.947 0 0 1 110.872 64h70.188a192.058 192.058 0 0 0 -362.12 0h70.188a127.947 127.947 0 0 1 110.872-64z" fill="#faa01e"/><path d="m366.872 320a128.036 128.036 0 0 1 -221.744 0h-70.188a192.058 192.058 0 0 0 362.12 0z" fill="#faa01e"/><path d="m369.137 150.863a7.981 7.981 0 0 1 -5.658-2.342 151.994 151.994 0 0 0 -214.958 0 8 8 0 0 1 -11.315-11.315 168 168 0 0 1 237.588 0 8 8 0 0 1 -5.657 13.657z" fill="#d7e6f0"/><path d="m256 424a166.907 166.907 0 0 1 -118.794-49.206 8 8 0 1 1 11.315-11.315 151.994 151.994 0 0 0 214.958 0 8 8 0 0 1 11.315 11.315 166.905 166.905 0 0 1 -118.794 49.206z" fill="#d7e6f0"/><g fill="#3c413c"><rect height="32" rx="16" width="48" x="64" y="240"/><rect height="32" rx="16" width="48" x="400" y="240"/><circle cx="256" cy="256" r="128"/></g><path d="m296 192v-24a8 8 0 0 0 -8-8h-64a8 8 0 0 0 -8 8v24z" fill="#a5c3dc"/><path d="m248 192v-32h-24a8 8 0 0 0 -8 8v24z" fill="#d7e6f0"/><path d="m216 192h80a0 0 0 0 1 0 0v48a32 32 0 0 1 -32 32h-16a32 32 0 0 1 -32-32v-48a0 0 0 0 1 0 0z" fill="#aa2823"/><path d="m248 272h16v72h-16z" fill="#a5c3dc"/><path d="m248 272h16v16h-16z" fill="#d7e6f0"/><path d="m240 344h32a16 16 0 0 1 16 16 0 0 0 0 1 0 0h-64a0 0 0 0 1 0 0 16 16 0 0 1 16-16z" fill="#87a5be"/><path d="m216 192h32a0 0 0 0 1 0 0v48a16 16 0 0 1 -16 16 16 16 0 0 1 -16-16v-48a0 0 0 0 1 0 0z" fill="#e13741"/><rect fill="#fff" height="69.333" rx="5.333" width="10.667" x="226.667" y="170.667"/></svg>